# xmcd
#
# Track frame offsets:
#      150
#      29639
#      46197
#      56916
#      68033
#      83139
#      103017
#      122363
#      132640
#      141713
#      154081
# 
# Disc length: 2959 seconds
#
# Revision: 7
# Processed by: cddbd v1.4PL0 Copyright (c) Steve Scherf et al.
#
# Submitted via: FreeRIP 1.21
#
DISCID=a10b8d0b
DTITLE=zvonko i guzk - rapa a sastama
DYEAR=2003
DGENRE=
TTITLE0=nagasaki
TTITLE1=dekonstrukcija pop pjesme
TTITLE2=gledam televiziju
TTITLE3=gubis svo to vrijeme...
TTITLE4=let's go away for a while
TTITLE5=zvonko u epizodi
TTITLE6=barbara
TTITLE7=my old lady
TTITLE8=u ocekivanju godota
TTITLE9=rupa u sistemu
TTITLE10=sister ray
EXTD=
EXTT0=
EXTT1=
EXTT2=
EXTT3=
EXTT4=
EXTT5=
EXTT6=
EXTT7=
EXTT8=
EXTT9=
EXTT10=
PLAYORDER=
